<svg id="Layer_1" data-name="Layer 1" xmlns="http://www.w3.org/2000/svg" viewBox="0 0 500 145.85"><defs><style>.cls-1{fill:#ff014f;}.cls-2{fill:#fff;}.cls-3{fill:#3c3e41;}</style></defs><title>logo-dark</title><g id="fabicon"><circle class="cls-1" cx="72.92" cy="72.92" r="72.92"/><path class="cls-2" d="M65,54V91.87H55.76V69.15L47.29,91.87H39.84L31.32,69.09V91.87H22.09V54H33L43.62,80.21,54.14,54Z"/><path class="cls-2" d="M123.76,54l-9.88,37.89H102.71l-6-24.94L90.41,91.87H79.24L69.63,54h9.88L85,81.56,91.7,54h10.15l6.47,27.58L113.83,54Z"/></g><rect class="cls-1" x="163.42" y="68.93" width="332.53" height="6.7" rx="2.05"/><path class="cls-3" d="M253,88.85l-16.35,56.44H218.18l-10-37.15-10.37,37.15H179.32l-15.9-56.44h16.35l9,41.08L200,88.85h16.79l10.72,41.08,9.11-41.08Z"/><path class="cls-3" d="M279.5,142.15a29.46,29.46,0,0,1-11.7-10.33,27.78,27.78,0,0,1,0-29.79,29.67,29.67,0,0,1,11.7-10.29,37.38,37.38,0,0,1,32.43,0A29,29,0,0,1,323.54,102a28.17,28.17,0,0,1,0,29.79,29.16,29.16,0,0,1-11.62,10.33,37.27,37.27,0,0,1-32.38,0Zm28.23-13.35q4.51-4.5,4.51-11.89T307.73,105q-4.51-4.47-12-4.46t-12.1,4.42q-4.51,4.41-4.51,12t4.51,11.94q4.51,4.46,12.1,4.46T307.73,128.8Z"/><path class="cls-3" d="M370.21,145.29l-13-21.31h-3.66v21.31H338.23V88.85h25.64a31,31,0,0,1,12.64,2.33,17.29,17.29,0,0,1,7.82,6.39,16.53,16.53,0,0,1,2.59,9.05,15.66,15.66,0,0,1-3.53,10q-3.52,4.43-10.41,6.28l14.47,22.35Zm-16.7-31H363c2.79,0,4.89-.61,6.29-1.85a6.58,6.58,0,0,0,2.1-5.22,6.43,6.43,0,0,0-2.1-5.07q-2.1-1.85-6.29-1.85h-9.47Z"/><path class="cls-3" d="M413.18,134.67h20v10.62H397.9V88.85h15.28Z"/><path class="cls-3" d="M484.46,92.38a27.16,27.16,0,0,1,0,49.37,39.86,39.86,0,0,1-17.28,3.54h-23.5V88.85h23.5A40,40,0,0,1,484.46,92.38Zm-4.83,36.75q4.83-4.26,4.83-12.06t-4.83-12.14q-4.81-4.35-13.49-4.34h-7.23v32.8h7.23Q474.81,133.39,479.63,129.13Z"/><path class="cls-3" d="M228.81.08V56H218.63V17.69L199.69,56h-7.06l-19-38.27V56H163.42V.08h11l21.8,43.82L217.91.08Z"/><path class="cls-3" d="M281.39,44.54h-26L250.93,56H240.3L262.54,0h11.79l22.25,56H285.86Zm-2.86-7.48-10.09-26-10.19,26Z"/><path class="cls-3" d="M373.46.08V56H363.27V17.69L344.33,56h-7.05l-19-38.27V56H308.07V.08h11l21.8,43.82L362.56.08Z"/><path class="cls-3" d="M395.13.08V35.7q0,6.34,3.71,9.56t10.31,3.22q6.71,0,10.41-3.22t3.71-9.56V.08h10.18V35.54a19.75,19.75,0,0,1-3.3,11.57,20,20,0,0,1-8.85,7.08,31.3,31.3,0,0,1-12.24,2.33,31,31,0,0,1-12.19-2.33,19.43,19.43,0,0,1-8.71-7.08,20.16,20.16,0,0,1-3.22-11.57V.08Z"/><path class="cls-3" d="M496,56H485.76L455.12,14.23V56H444.94V0h10.18l30.64,41.65V0H496Z"/></svg>